<svg id="Layer_1" data-name="Layer 1" xmlns="http://www.w3.org/2000/svg" viewBox="0 0 424.4 197.4"><defs><style>.cls-1,.cls-4,.cls-6{fill:none;}.cls-1{stroke:#000;stroke-width:6px;}.cls-1,.cls-4,.cls-5,.cls-6{stroke-linecap:round;stroke-miterlimit:10;}.cls-1,.cls-2,.cls-5,.cls-6{opacity:0.96;}.cls-3,.cls-5{fill:#8d80e0;}.cls-4,.cls-5,.cls-6{stroke:#8d80e0;}.cls-4,.cls-5{stroke-width:2px;}.cls-6{stroke-width:7px;}</style></defs><path class="cls-1" d="M207.5,276.5a83.55,83.55,0,1,1-36.6-77" transform="translate(-37.8 -157.9)"/><path class="cls-1" d="M328.5,199.9a83.48,83.48,0,1,1-36.3,72.3" transform="translate(-37.8 -157.9)"/><g class="cls-2"><path d="M81.19,248.66l-4.5,13.59-6.3-2.09,2.28-6.87-5.45-1.8-2,6-6.14-2,2-6-5.39-1.79-2.29,6.92-6.32-2.09,4.52-13.64Z" transform="translate(-37.8 -157.9)"/><path d="M60.47,281.65,63.58,292,58,293.65l-3.11-10.31Z" transform="translate(-37.8 -157.9)"/><path d="M88.06,299.41l5.75,4.32q5,3.76,5.76,7.39A8.07,8.07,0,0,1,98,317.79c-1.64,2.19-4,3.15-7.18,2.88a6.73,6.73,0,0,1-.46,8.2,8.22,8.22,0,0,1-6.17,3.52,10.87,10.87,0,0,1-7.44-2.49l-7.4-5.54Zm-5.35,18.93-4,5.4a8.5,8.5,0,0,0,3.72,1.76A2.75,2.75,0,0,0,85,324.24q2-2.67-1.82-5.55Zm7.42-9.9-4,5.38c2.57,1.83,4.5,1.9,5.77.21a2.92,2.92,0,0,0,.67-2.79A6.84,6.84,0,0,0,90.13,308.44Z" transform="translate(-37.8 -157.9)"/><path d="M118.54,314.11l7.07.29-1.29,31.15-7.07-.29Z" transform="translate(-37.8 -157.9)"/><path d="M142.24,311.77l6-3.76,7.8,12.42.1-.06-2.14-16,6.29-3.94,2.33,17.33,14,9.23L170,331.15l-12-7.78-.1.07,6.89,11-6,3.76Z" transform="translate(-37.8 -157.9)"/><path d="M166.79,289.56,171.51,276l6.26,2.19-2.39,6.83,5.43,1.9,2.07-5.93,6.1,2.13-2.07,5.93,5.36,1.87,2.4-6.88,6.29,2.2-4.74,13.55Z" transform="translate(-37.8 -157.9)"/></g><g class="cls-2"><polygon class="cls-3" points="278.63 65.74 278.6 65.8 302.9 134.4 179.1 81.9 190.6 126.7 3.4 43.7 3.52 43.24 140.5 79.6 140.69 79.56 129.3 20.6 129.5 20.1 250.7 71.1 251.4 70.5 237.4 1 384.8 114.7 278.63 65.74"/><polyline class="cls-4" points="3 43.1 3.52 43.24 140.5 79.6"/><polyline class="cls-4" points="129.3 20.6 140.69 79.56 140.7 79.6"/><line class="cls-4" x1="129.5" y1="20.1" x2="250.7" y2="71.1"/><line class="cls-4" x1="237.4" y1="1" x2="251.4" y2="70.5"/><line class="cls-4" x1="384.8" y1="114.7" x2="237.4" y2="1"/><line class="cls-4" x1="3.4" y1="43.7" x2="190.6" y2="126.7"/><line class="cls-4" x1="179.1" y1="81.9" x2="190.6" y2="126.7"/><line class="cls-4" x1="179.1" y1="81.9" x2="302.9" y2="134.4"/><line class="cls-4" x1="278.6" y1="65.8" x2="302.9" y2="134.4"/><polyline class="cls-4" points="384.8 114.7 278.63 65.74 278.1 65.5"/></g><circle class="cls-5" cx="86.35" cy="110.9" r="4.5"/><circle class="cls-5" cx="337.9" cy="110.9" r="4.5"/><path class="cls-6" d="M442.78,292.3a72,72,0,0,1-90,44.23" transform="translate(-37.8 -157.9)"/></svg>